<svg xmlns="http://www.w3.org/2000/svg" version="1.1" xmlns:xlink="http://www.w3.org/1999/xlink" width="1000" height="1000"><metadata><rdf:RDF xmlns:rdf="http://www.w3.org/1999/02/22-rdf-syntax-ns#" xmlns:dc="http://purl.org/dc/elements/1.1/"><rdf:Description><dc:creator>RealFaviconGenerator</dc:creator><dc:source>https://realfavicongenerator.net</dc:source></rdf:Description></rdf:RDF></metadata><g clip-path="url(#SvgjsClipPath1200)"><rect width="1000" height="1000" fill="#ffffff"></rect><g transform="matrix(10.416666666666666,0,0,10.416666666666666,0,0)"><svg xmlns="http://www.w3.org/2000/svg" viewBox="-48 -48 96 96" width="96" height="96"><rect x="-48" y="-48" width="96" height="96" fill="#262626"></rect><g stroke="#f9f8f7" stroke-width="2.5" stroke-linejoin="round" stroke-linecap="round">
    <polygon points="-35,-5 1,0 37,-3 0,15" fill="#aaaaaa"></polygon>
    <polygon points="1,-24 14,9 0,15 -13,8" fill="#888888"></polygon>
    <polygon points="1,-24 -20,23 0,15" fill="#cccccc"></polygon>
    <polygon points="1,-24 20,24 0,15" fill="#b1b1b1"></polygon>
    <polygon points="37,-3 20,24 0,15" fill="#9c9c9c"></polygon>
    <polygon points="-35,-5 0,15 -20,23" fill="#c5c5c5"></polygon>
    <polygon points="-20,23 20,24 0,15" fill="#a3a3a3"></polygon>
  </g></svg></g></g><defs><clipPath id="SvgjsClipPath1200"><rect width="1000" height="1000" x="0" y="0" rx="0" ry="0"></rect></clipPath></defs></svg>